<svg width="29" height="38" viewBox="0 0 29 38" fill="none" xmlns="http://www.w3.org/2000/svg">
<path d="M11.75 21.75V16.4925C11.75 16.125 12.125 15.75 12.5 15.75H15.5C15.875 15.75 16.25 16.125 16.25 16.5V21.75C16.25 21.9489 16.329 22.1397 16.4697 22.2803C16.6103 22.421 16.8011 22.5 17 22.5H23C23.1989 22.5 23.3897 22.421 23.5303 22.2803C23.671 22.1397 23.75 21.9489 23.75 21.75V11.25C23.7502 11.1514 23.7309 11.0538 23.6933 10.9627C23.6558 10.8716 23.6006 10.7888 23.531 10.719L21.5 8.6895V3.75C21.5 3.55109 21.421 3.36032 21.2803 3.21967C21.1397 3.07902 20.9489 3 20.75 3H19.25C19.0511 3 18.8603 3.07902 18.7197 3.21967C18.579 3.36032 18.5 3.55109 18.5 3.75V5.6895L14.531 1.719C14.4613 1.64915 14.3786 1.59374 14.2875 1.55593C14.1963 1.51812 14.0987 1.49866 14 1.49866C13.9014 1.49866 13.8037 1.51812 13.7126 1.55593C13.6214 1.59374 13.5387 1.64915 13.469 1.719L4.469 10.719C4.3994 10.7888 4.34423 10.8716 4.30665 10.9627C4.26908 11.0538 4.24983 11.1514 4.25 11.25V21.75C4.25 21.9489 4.32902 22.1397 4.46967 22.2803C4.61032 22.421 4.80109 22.5 5 22.5H11C11.1989 22.5 11.3897 22.421 11.5303 22.2803C11.671 22.1397 11.75 21.9489 11.75 21.75Z" fill="#212529"/>
<path d="M0.71733 36V28.7273H2.0348V31.8061H5.40483V28.7273H6.72585V36H5.40483V32.9105H2.0348V36H0.71733ZM10.0812 36.1065C9.54851 36.1065 9.08686 35.9893 8.69624 35.755C8.30561 35.5206 8.00258 35.1927 7.78714 34.7713C7.57408 34.3499 7.46754 33.8575 7.46754 33.294C7.46754 32.7306 7.57408 32.237 7.78714 31.8132C8.00258 31.3894 8.30561 31.0604 8.69624 30.826C9.08686 30.5916 9.54851 30.4744 10.0812 30.4744C10.6138 30.4744 11.0755 30.5916 11.4661 30.826C11.8567 31.0604 12.1586 31.3894 12.3717 31.8132C12.5871 32.237 12.6948 32.7306 12.6948 33.294C12.6948 33.8575 12.5871 34.3499 12.3717 34.7713C12.1586 35.1927 11.8567 35.5206 11.4661 35.755C11.0755 35.9893 10.6138 36.1065 10.0812 36.1065ZM10.0883 35.0767C10.3771 35.0767 10.6186 34.9974 10.8127 34.8388C11.0068 34.6778 11.1513 34.4624 11.246 34.1925C11.343 33.9226 11.3915 33.6219 11.3915 33.2905C11.3915 32.9567 11.343 32.6548 11.246 32.3849C11.1513 32.1127 11.0068 31.8961 10.8127 31.7351C10.6186 31.5741 10.3771 31.4936 10.0883 31.4936C9.79235 31.4936 9.54614 31.5741 9.34964 31.7351C9.15552 31.8961 9.00992 32.1127 8.91286 32.3849C8.81816 32.6548 8.77081 32.9567 8.77081 33.2905C8.77081 33.6219 8.81816 33.9226 8.91286 34.1925C9.00992 34.4624 9.15552 34.6778 9.34964 34.8388C9.54614 34.9974 9.79235 35.0767 10.0883 35.0767ZM13.3859 36V30.5455H14.6146V31.4723H14.6785C14.7922 31.1598 14.9804 30.916 15.2431 30.7408C15.5059 30.5632 15.8196 30.4744 16.1842 30.4744C16.5535 30.4744 16.8648 30.5644 17.1181 30.7443C17.3738 30.9219 17.5538 31.1645 17.6579 31.4723H17.7147C17.8355 31.1693 18.0391 30.9278 18.3255 30.7479C18.6144 30.5656 18.9565 30.4744 19.3518 30.4744C19.8537 30.4744 20.2633 30.633 20.5805 30.9503C20.8977 31.2675 21.0564 31.7304 21.0564 32.3388V36H19.7673V32.5376C19.7673 32.1991 19.6773 31.9517 19.4974 31.7955C19.3175 31.6368 19.0973 31.5575 18.8369 31.5575C18.5268 31.5575 18.2841 31.6546 18.1089 31.8487C17.9361 32.0405 17.8497 32.2902 17.8497 32.598V36H16.589V32.4844C16.589 32.2027 16.5038 31.9777 16.3333 31.8097C16.1653 31.6416 15.9451 31.5575 15.6728 31.5575C15.4882 31.5575 15.3201 31.6049 15.1686 31.6996C15.0171 31.7919 14.8963 31.9233 14.8064 32.0938C14.7164 32.2618 14.6714 32.4583 14.6714 32.6832V36H13.3859ZM24.3753 36.1065C23.8284 36.1065 23.3561 35.9929 22.9584 35.7656C22.563 35.536 22.2588 35.2116 22.0457 34.7926C21.8327 34.3712 21.7261 33.8752 21.7261 33.3047C21.7261 32.7436 21.8327 32.2512 22.0457 31.8274C22.2612 31.4013 22.5618 31.0698 22.9477 30.8331C23.3336 30.594 23.787 30.4744 24.3078 30.4744C24.644 30.4744 24.9612 30.5289 25.2595 30.6378C25.5602 30.7443 25.8253 30.91 26.055 31.1349C26.287 31.3598 26.4693 31.6463 26.6018 31.9943C26.7344 32.34 26.8007 32.7519 26.8007 33.2301V33.6243H22.3298V32.7578H25.5685C25.5661 32.5116 25.5128 32.2926 25.4087 32.1009C25.3045 31.9067 25.1589 31.754 24.9719 31.6428C24.7872 31.5315 24.5718 31.4759 24.3256 31.4759C24.0628 31.4759 23.832 31.5398 23.6331 31.6676C23.4342 31.7931 23.2792 31.9588 23.1679 32.1648C23.059 32.3684 23.0034 32.5921 23.001 32.8359V33.5923C23.001 33.9096 23.059 34.1818 23.175 34.4091C23.291 34.634 23.4532 34.8068 23.6615 34.9276C23.8698 35.0459 24.1137 35.1051 24.393 35.1051C24.5801 35.1051 24.7493 35.0791 24.9009 35.027C25.0524 34.9725 25.1838 34.8932 25.295 34.7891C25.4063 34.6849 25.4903 34.5559 25.5472 34.402L26.7474 34.5369C26.6717 34.8542 26.5273 35.1312 26.3142 35.3679C26.1035 35.6023 25.8336 35.7846 25.5045 35.9148C25.1755 36.0426 24.7991 36.1065 24.3753 36.1065Z" fill="#152536"/>
</svg>
